<svg width="287" height="103" viewBox="0 0 287 103" fill="none" xmlns="http://www.w3.org/2000/svg">
<path d="M29.1688 0H0.49968L0 5.4145H0.06246C4.49712 3.29849 7.37028 0.995769 10.6807 0.995769H11.9923V40.0798H17.6762V0.995769H18.9254C22.2358 0.995769 25.2338 3.36072 29.6685 5.47674H29.7934L29.1688 0Z" fill="#C1AB81"/>
<path d="M64.4328 0V18.7329H44.758V0H39.1366V40.0798H44.758V19.7287H64.4328V40.0798H70.0543V0H64.4328Z" fill="#C1AB81"/>
<path d="M91.397 39.084H88.2116V19.7287H98.7048V18.7329H88.2116V0.995769H91.397C96.144 0.995769 101.765 1.36918 103.889 7.03263H105.076L105.013 0H82.5902V40.0798H105.013L105.076 33.0471H103.889C101.765 38.7106 96.144 39.084 91.397 39.084Z" fill="#C1AB81"/>
<path d="M185.043 0C183.356 5.22779 181.982 9.21087 179.109 17.2393L174.237 31.3045L163.494 0H163.244L152.251 31.3045L141.508 0H135.512L149.753 40.9511H149.94L160.996 9.58429L171.864 40.9511H172.051L180.171 17.6127C182.607 10.7668 184.356 5.72568 186.729 0H185.043Z" fill="#C1AB81"/>
<path d="M201.737 40.0798V0H196.116V40.0798H201.737Z" fill="#C1AB81"/>
<path d="M235.616 33.0471C233.493 38.7106 227.871 39.084 223.124 39.084H219.939V0H214.317V40.0798H236.74L236.803 33.0471H235.616Z" fill="#C1AB81"/>
<path d="M260.479 0H246.426V40.0798H259.542C273.221 40.0798 281.778 32.5492 281.778 19.6042C281.778 6.90816 273.221 0 260.479 0ZM260.479 39.2085C256.044 39.2085 253.484 39.0218 252.047 38.7106V0.933534H259.979C269.473 0.933534 275.594 8.52628 275.594 19.9154C275.594 32.2381 270.098 39.2085 260.479 39.2085Z" fill="#C1AB81"/>
<path d="M9.53271 102.315V62.2356H3.91131V102.315H9.53271ZM34.142 62.3601V62.2356H32.0183C28.9578 65.1607 25.1477 68.7082 19.214 74.3094L11.2816 81.7776L25.0853 102.315H32.518L15.9036 78.9148L19.9011 75.1184C25.0228 70.264 29.4575 66.1565 34.142 62.3601Z" fill="#C1AB81"/>
<path d="M49.0216 102.315V62.2356H43.4002V102.315H49.0216Z" fill="#C1AB81"/>
<path d="M88.4592 62.2356C88.4592 62.2356 88.4592 62.858 88.4592 79.7861V93.2912L66.4108 62.2356H59.7276V62.4224L62.4134 66.1565V102.253H63.5377V67.7124L89.0838 103H89.5835V62.2356H88.4592Z" fill="#C1AB81"/>
<path d="M122.614 84.1426L123.239 85.1384H132.483V98.7057C130.047 100.635 126.299 102.004 122.239 102.004C112.87 102.004 106.687 93.8513 106.687 82.2133C106.687 70.264 112.308 62.4846 121.115 62.4846C123.988 62.4846 125.675 64.2272 126.924 66.5299C128.923 70.1396 133.732 70.9486 136.668 68.0858L136.793 68.0236C133.482 64.3517 128.111 61.6133 121.615 61.6133C109.56 61.6133 100.503 69.8284 100.503 82.5867C100.503 95.4695 109.06 103 121.989 103C129.11 103 134.107 100.573 137.667 97.9589V84.1426H122.614Z" fill="#C1AB81"/>
<path d="M162.928 62.2356H148.875V102.315H161.991C175.67 102.315 184.227 94.7849 184.227 81.8399C184.227 69.1438 175.67 62.2356 162.928 62.2356ZM162.928 101.444C158.493 101.444 155.933 101.257 154.496 100.946V63.1692H162.428C171.922 63.1692 178.043 70.7619 178.043 82.1511C178.043 94.4737 172.547 101.444 162.928 101.444Z" fill="#C1AB81"/>
<path d="M214.746 61.6133C202.754 61.6133 193.51 69.8284 193.51 82.7112C193.51 95.345 202.567 103 214.059 103C225.989 103 235.296 94.7849 235.296 81.9021C235.296 69.2683 226.239 61.6133 214.746 61.6133ZM214.622 102.129C205.815 102.129 199.694 94.1003 199.694 82.0888C199.694 70.264 205.44 62.4846 214.309 62.4846C222.991 62.4846 229.112 70.513 229.112 82.5245C229.112 94.3492 223.366 102.129 214.622 102.129Z" fill="#C1AB81"/>
<path d="M283.19 62.2356H278.131L266.451 91.7353L253.147 62.2356H247.088V62.4224L248.275 65.0362L244.777 102.253H245.839L249.149 67.09L264.14 99.826H264.389L277.881 65.7208L281.316 102.315H287L283.19 62.2356Z" fill="#C1AB81"/>
</svg>
